# xmcd
# 
# Track frame offsets:
#     150
#     15410
#     31201
#     46871
#     66877
#     81339
#     98859
#     112583
#     132546
#     149599
#     172631
# 
# Disc length: 2494
# 
# Revision: 0
# Processed by: cddbd v1.5.2PL0 Copyright (c) Steve Scherf et al.
# Submitted via: BonkEnc v1.0.8
# 
DISCID=8509bc0b
DTITLE=Tom Waits - The Heart Of Saturday Night
DYEAR=1974
DGENRE=Blues
TTITLE0=01-New Coat Of Paint
TTITLE1=02-San Diego Serenade
TTITLE2=03-Semi Suite
TTITLE3=04-Shiver Me Timbers
TTITLE4=05-Diamonds On My Windshield (Looking For)
TTITLE5=06-The Heart Of Saturday Night
TTITLE6=07-Fumblin' With The Blues
TTITLE7=08-Please Call Me, Baby
TTITLE8=09-Depot, Depot
TTITLE9=10-Drunk On The Moon
TTITLE10=11-The Ghosts Of Saturday Night (After Hours At Napoleone's Pizza House)
EXTD=YEAR: 1974
EXTT0=
EXTT1=
EXTT2=
EXTT3=
EXTT4=
EXTT5=
EXTT6=
EXTT7=
EXTT8=
EXTT9=
EXTT10=
PLAYORDER=
